<?xml version="1.0" encoding="UTF-8" standalone="no"?>
<!DOCTYPE svg PUBLIC "-//W3C//DTD SVG 1.1//EN" "http://www.w3.org/Graphics/SVG/1.1/DTD/svg11.dtd">
<svg width="100%" height="100%" viewBox="0 0 100 100" version="1.1" xmlns="http://www.w3.org/2000/svg" xmlns:xlink="http://www.w3.org/1999/xlink" xml:space="preserve" xmlns:serif="http://www.serif.com/" style="fill-rule:evenodd;clip-rule:evenodd;stroke-linejoin:round;stroke-miterlimit:2;">
    <g id="svg_3">
    </g>
    <g transform="matrix(0.108345,0,0,0.108345,-25.2711,12.0447)">
        <g transform="matrix(9.22978,0,0,9.22978,104.287,-234.386)">
            <circle cx="25.113" cy="25.067" r="5.142" style="fill:rgb(34,34,34);"/>
        </g>
        <g transform="matrix(9.22978,0,0,9.22978,261.204,-250.771)">
            <circle cx="25.113" cy="25.067" r="5.142" style="fill:rgb(34,34,34);"/>
        </g>
        <g transform="matrix(9.22978,0,0,9.22978,451.802,-278.855)">
            <circle cx="25.113" cy="25.067" r="5.142" style="fill:rgb(34,34,34);"/>
        </g>
        <g transform="matrix(9.22978,0,0,9.22978,640.881,-249.251)">
            <circle cx="25.113" cy="25.067" r="5.142" style="fill:rgb(34,34,34);"/>
        </g>
        <g transform="matrix(9.22978,0,0,9.22978,799.269,-234.339)">
            <circle cx="25.113" cy="25.067" r="5.142" style="fill:rgb(34,34,34);"/>
        </g>
        <g transform="matrix(9.22978,0,0,9.22978,90.3263,-69.0216)">
            <circle cx="25.113" cy="25.067" r="5.142" style="fill:rgb(34,34,34);"/>
        </g>
        <g transform="matrix(9.22978,0,0,9.22978,278.501,-54.1478)">
            <circle cx="25.113" cy="25.067" r="5.142" style="fill:rgb(34,34,34);"/>
        </g>
        <g transform="matrix(9.22978,0,0,9.22978,451.802,-104.661)">
            <circle cx="25.113" cy="25.067" r="5.142" style="fill:rgb(34,34,34);"/>
        </g>
        <g transform="matrix(9.22978,0,0,9.22978,625.103,-54.1478)">
            <circle cx="25.113" cy="25.067" r="5.142" style="fill:rgb(34,34,34);"/>
        </g>
        <g transform="matrix(9.22978,0,0,9.22978,817.062,-72.8064)">
            <circle cx="25.113" cy="25.067" r="5.142" style="fill:rgb(34,34,34);"/>
        </g>
        <g transform="matrix(9.22978,0,0,9.22978,55.5521,125.178)">
            <circle cx="25.113" cy="25.067" r="5.142" style="fill:rgb(34,34,34);"/>
        </g>
        <g transform="matrix(9.22978,0,0,9.22978,235.925,125.178)">
            <circle cx="25.113" cy="25.067" r="5.142" style="fill:rgb(34,34,34);"/>
        </g>
        <g transform="matrix(14.4403,0,0,14.4403,320.949,-5.43434)">
            <circle cx="25.113" cy="25.067" r="5.142" style="fill:rgb(34,34,34);"/>
        </g>
        <g transform="matrix(9.22978,0,0,9.22978,664.203,125.178)">
            <circle cx="25.113" cy="25.067" r="5.142" style="fill:rgb(34,34,34);"/>
        </g>
        <g transform="matrix(9.22978,0,0,9.22978,853.94,125.178)">
            <circle cx="25.113" cy="25.067" r="5.142" style="fill:rgb(34,34,34);"/>
        </g>
        <g transform="matrix(9.22978,0,0,9.22978,88.9808,320.723)">
            <circle cx="25.113" cy="25.067" r="5.142" style="fill:rgb(34,34,34);"/>
        </g>
        <g transform="matrix(9.22978,0,0,9.22978,278.501,304.503)">
            <circle cx="25.113" cy="25.067" r="5.142" style="fill:rgb(34,34,34);"/>
        </g>
        <g transform="matrix(9.22978,0,0,9.22978,451.802,350.074)">
            <circle cx="25.113" cy="25.067" r="5.142" style="fill:rgb(34,34,34);"/>
        </g>
        <g transform="matrix(9.22978,0,0,9.22978,625.103,304.503)">
            <circle cx="25.113" cy="25.067" r="5.142" style="fill:rgb(34,34,34);"/>
        </g>
        <g transform="matrix(9.22978,0,0,9.22978,812.818,318.917)">
            <circle cx="25.113" cy="25.067" r="5.142" style="fill:rgb(34,34,34);"/>
        </g>
        <g transform="matrix(9.22978,0,0,9.22978,114.922,474.107)">
            <circle cx="25.113" cy="25.067" r="5.142" style="fill:rgb(34,34,34);"/>
        </g>
        <g transform="matrix(9.22978,0,0,9.22978,260.542,501.788)">
            <circle cx="25.113" cy="25.067" r="5.142" style="fill:rgb(34,34,34);"/>
        </g>
        <g transform="matrix(9.22978,0,0,9.22978,451.802,525.778)">
            <circle cx="25.113" cy="25.067" r="5.142" style="fill:rgb(34,34,34);"/>
        </g>
        <g transform="matrix(9.22978,0,0,9.22978,652.523,511.249)">
            <circle cx="25.113" cy="25.067" r="5.142" style="fill:rgb(34,34,34);"/>
        </g>
        <g transform="matrix(9.22978,0,0,9.22978,786.37,471.795)">
            <circle cx="25.113" cy="25.067" r="5.142" style="fill:rgb(34,34,34);"/>
        </g>
    </g>
</svg>
