<?xml version="1.0" encoding="UTF-8" standalone="no"?>
<!DOCTYPE svg PUBLIC "-//W3C//DTD SVG 1.1//EN" "http://www.w3.org/Graphics/SVG/1.1/DTD/svg11.dtd">
<svg width="100%" height="100%" viewBox="0 0 100 100" version="1.1" xmlns="http://www.w3.org/2000/svg" xmlns:xlink="http://www.w3.org/1999/xlink" xml:space="preserve" xmlns:serif="http://www.serif.com/" style="fill-rule:evenodd;clip-rule:evenodd;stroke-linejoin:round;stroke-miterlimit:2;">
    <g id="path4138" transform="matrix(0.0718846,0,0,0.084923,10.9135,4.80399)">
        <path d="M570.358,1050.42C564.78,1048.4 557.978,1042.77 555.634,1038.24C554.564,1036.17 551.697,1028.75 549.263,1021.74C537.382,987.532 521.883,968.891 503.198,966.331C489.043,964.392 463.329,981.827 433.746,1013.42C416.137,1032.23 409.887,1035.34 396.283,1032.08C387.994,1030.09 378.544,1021.45 376.502,1013.99C372.181,998.204 375.773,991.271 401.654,965.434C430.005,937.131 450.053,922.747 473.077,914.188C482.47,910.697 484.446,910.418 500.081,910.379C515.867,910.34 517.654,910.588 527.899,914.243C542.871,919.585 551.246,924.815 563.54,936.502C579.868,952.022 592.64,973.315 602.527,1001.5C607.834,1016.63 608.878,1022.74 607.366,1029.85C603.925,1046.04 585.904,1056.05 570.358,1050.42ZM686.898,1014.79C679.44,1011.4 657.655,993.562 643.12,978.945C613.889,949.55 594.989,917.942 586.026,883.464C576.809,848.007 581.411,803.403 597.302,774.173C606.883,756.549 623.762,751.264 639.206,761.054C652.047,769.194 655.361,784.183 647.813,799.984C640.5,815.295 638.219,825.91 638.33,844.119C638.406,856.56 639.057,862.693 641.115,870.349C644.475,882.853 653.021,900.739 661.588,913.199C669.942,925.348 691.003,947.23 705.767,959.1C723.756,973.561 727.05,978.853 725.993,991.591C724.428,1010.46 704.022,1022.57 686.898,1014.79ZM285.773,1004.75C275.849,1002.21 267.45,994.337 264.986,985.261C263.027,978.044 264.418,967.762 268.106,962.19C269.992,959.342 280.797,950.341 295.623,939.267C406.081,856.764 504.563,763.88 558.712,691.132C579.301,663.47 596.303,633.761 604.827,610.548C616.846,577.815 615.8,553.314 601.074,522.641C587.939,495.283 564.986,480.022 536.97,480.022C512.3,480.022 487.859,492.914 471.526,514.541C467.728,519.57 458.913,535.506 450.202,553.091C406.22,641.879 366.424,688.996 280.15,754.423C251.12,776.438 177.557,828.686 172.782,830.68C165.832,833.582 152.983,832.357 146.685,828.191C133.504,819.472 130.194,800.448 139.652,787.776C141.246,785.641 154.251,775.55 168.551,765.352C257.838,701.678 291.304,675.235 319.605,645.995C351.58,612.958 371.316,583.61 399.487,527.209C416.203,493.741 423.452,482.221 436.76,467.978C465.676,437.029 510.477,419.391 549.155,423.728C579.482,427.129 602.718,438.027 623.911,458.789C647.478,481.876 662.217,511.349 668.21,547.374C670.727,562.502 670.216,582.786 666.885,599.907C657.999,645.582 623.98,704.698 571.168,766.24C523.077,822.279 452.211,888.459 373.246,951.073C344.948,973.512 311.973,998.234 305.777,1001.66C300.079,1004.8 291.297,1006.16 285.773,1004.75ZM805.3,944.711C787.718,938.019 769.779,928.424 757.18,918.972C718.224,889.748 691.919,839.685 681.426,774.797C675.119,735.796 677.044,708.898 691.307,636.759C705.342,565.773 707.159,530.806 698.511,498.133C688.933,461.95 664.03,429.688 627.219,405.773C599.355,387.672 569.599,378.845 536.469,378.854C503.179,378.863 474.186,387.725 445.345,406.711C408.697,430.836 382.835,463.004 355.777,518.118C348.02,533.919 338.334,551.905 334.253,558.088C305.998,600.889 254.207,649.475 193.451,690.177C175.214,702.394 170.057,704.796 162.062,704.796C138.728,704.796 125.271,676.44 140.419,659.194C142.531,656.791 150.513,650.683 158.158,645.622C213.527,608.969 261.547,564.699 286.98,526.862C290.212,522.053 295.754,511.935 299.294,504.379C322.453,454.951 341.793,425.133 368.865,397.115C412.167,352.302 462.265,327.699 520.835,322.485C576.453,317.533 636.8,337.712 683.494,376.875C739.672,423.993 765.296,485.738 760.01,561.255C758.345,585.05 755.37,604.983 747.34,646.145C738.097,693.529 736.158,707.127 735.407,729.831C734.823,747.454 735.113,752.613 737.406,765.429C745.624,811.362 758.933,841.984 779.994,863.42C791.701,875.335 803.873,882.942 824.991,891.541C842.476,898.661 846.274,901.262 850.117,908.753C855.804,919.839 853.856,932.884 845.262,941.254C835.028,951.222 824.743,952.111 805.3,944.711ZM199.404,934.173C193.356,931.358 188.79,926.73 185.112,919.686C182.543,914.767 183.073,902.407 186.102,896.579C189.388,890.257 192.118,887.825 212.046,873.464C310.632,802.415 400.217,717.976 455.867,643.647C477.791,614.365 492.358,591.124 506.329,563.138C514.413,546.946 516.439,543.854 521.066,540.647C525.428,537.625 528.008,536.84 534.862,536.453C540.394,536.141 544.781,536.6 547.617,537.787C561.876,543.759 568.592,559.637 563.254,574.759C560.513,582.524 547.004,608.861 538.524,622.973C481.762,717.43 377.805,822.848 248.162,917.417C236.411,925.989 224.45,933.941 221.583,935.088C214.345,937.983 206.933,937.677 199.404,934.173ZM867.785,871.523C860.952,868.119 839.563,846.969 825.261,829.474C807.545,807.803 792.717,782.119 785.763,761.058C779.739,742.815 778.124,731.933 778.164,709.847C778.207,685.694 778.994,678.645 788.767,614.919C798.7,550.152 800.287,535.736 800.317,509.999C800.346,485.19 798.79,475.584 791.613,456.29C787.066,444.069 777.152,423.416 770.028,411.325C749.638,376.721 716.149,341.731 683.774,321.206C608.89,273.732 501.034,267.197 424.48,305.495C401.437,317.023 380.783,332.022 359.667,352.561C335.273,376.289 317.171,400.238 287.565,447.951C272.031,472.986 259.602,489.944 244.376,506.877C219.867,534.134 181.783,563.201 167.395,565.631C156.111,567.536 142.402,560.087 137.552,549.414C136.266,546.583 135.238,541.437 135.223,537.751C135.175,526.207 140.179,518.129 151.401,511.637C162.565,505.178 180.757,490.601 193.167,478.169C213.034,458.269 223.801,443.711 249.292,402.286C293.648,330.201 342.091,282.924 400.869,254.356C440.259,235.211 478.245,226.051 525.074,224.405C607.29,221.515 682.922,245.842 743.755,294.744C791.533,333.151 833.787,395.937 850.371,453.168C856.044,472.747 856.849,480.035 856.784,511.248C856.714,544.515 855.856,552.784 845.574,619.291C833.654,696.388 832.297,715.687 837.404,735.452C843.557,759.266 860.936,786.156 889.207,815.604C905.86,832.951 908.704,837.456 908.704,846.496C908.704,867.642 886.841,881.014 867.785,871.523ZM890.914,763.561C884.86,761.739 879.136,757.446 875.503,752.003C870.289,744.192 870.126,735.892 874.747,713.594C892.596,627.474 893.962,545.543 878.641,480.022C875.659,467.266 873.503,460.422 867.933,446.013C861.223,428.657 862.758,418.216 873.431,408.598C887.656,395.778 908.848,400.597 918.031,418.74C925.1,432.704 933.767,462.704 938.622,490.015C949.27,549.91 948.366,623.068 936.081,695.483C931.912,720.057 926.593,744.236 924.287,749.093C918.732,760.794 903.566,767.369 890.914,763.561ZM167.327,414.542C155.135,411.27 147.508,401.553 146.682,388.243C146.103,378.915 148.171,374.717 168.232,344.503C205.249,288.754 249.236,237.661 284.187,209.818C341.231,164.374 406.217,137.83 483.836,128.269C505.432,125.609 555.424,124.603 575.933,126.416C660.198,133.863 737.969,166.109 809.985,223.462C840.932,248.108 889.192,298.959 903.606,322.109C911.68,335.076 910.018,349.202 899.311,358.622C887.211,369.269 872.031,368.932 861.219,357.778C858.126,354.587 850.816,345.798 844.974,338.247C832.084,321.584 796.749,285.814 778.601,271.056C701.749,208.559 618.706,178.858 529.447,181.942C454.232,184.542 395.275,202.131 342.006,237.863C298.788,266.853 258.944,310.494 215.568,376.348C194.038,409.037 193.963,409.133 187.677,412.146C180.069,415.793 174.452,416.454 167.327,414.542ZM200.8,220.984C188.287,215.52 180.94,201.678 183.8,188.955C185.604,180.926 192.932,171.259 210.797,153.339C262.608,101.365 330.785,63.266 407.61,43.354C476.406,25.523 557.513,23.126 633.79,36.668C682.978,45.401 737.858,64.639 781.883,88.582C802.925,100.027 832.991,119.723 852.093,134.579C868.219,147.121 872.486,153.411 872.438,164.571C872.355,183.652 852.808,197.473 834.977,191.059C832.571,190.193 823.349,184.006 814.483,177.309C775.672,147.993 737.9,127.06 697.212,112.318C607.706,79.887 500.537,75.571 411.919,100.827C344.001,120.184 280.493,158.655 239.806,205.088C232.228,213.735 226.75,218.825 223.367,220.361C217.416,223.063 206.265,223.371 200.8,220.984Z" style="fill-rule:nonzero;"/>
    </g>
</svg>
