<?xml version="1.0" encoding="UTF-8" standalone="no"?>
<!DOCTYPE svg PUBLIC "-//W3C//DTD SVG 1.1//EN" "http://www.w3.org/Graphics/SVG/1.1/DTD/svg11.dtd">
<svg width="100%" height="100%" viewBox="0 0 100 100" version="1.1" xmlns="http://www.w3.org/2000/svg" xmlns:xlink="http://www.w3.org/1999/xlink" xml:space="preserve" xmlns:serif="http://www.serif.com/" style="fill-rule:evenodd;clip-rule:evenodd;stroke-linejoin:round;stroke-miterlimit:2;">
    <g id="thermometer" transform="matrix(0.864239,-0.171461,0.171461,0.864239,-158.707,-811.715)">
        <path d="M21.474,958.362C15.059,958.362 9.783,963.058 9.815,968.806L9.84,972.545L4.589,972.545L4.589,976.498L9.862,976.498L9.891,981.444L4.84,981.444L4.84,985.396L9.913,985.396L9.943,991.33L4.837,991.33L4.837,995.286L9.964,995.286L9.99,999.98L4.961,999.98L4.961,1003.94L10.012,1003.94L10.051,1010.74C3.781,1014.98 0.019,1022.02 -0,1029.55C0.001,1042.15 10.298,1052.36 23,1052.36C35.702,1052.36 45.999,1042.15 46,1029.55C45.985,1021.9 42.114,1014.77 35.684,1010.55L35.684,968.806C35.684,963.058 30.44,958.362 24.024,958.362L21.474,958.362ZM21.474,962.898L24.024,962.898C27.721,962.898 30.621,965.493 30.621,968.806L30.621,1013.09L30.766,1013.09C30.756,1013.33 30.706,1013.57 30.632,1013.78C36.539,1016.74 40.268,1022.74 40.276,1029.3C40.276,1038.9 32.429,1046.69 22.749,1046.69C13.068,1046.69 5.221,1038.9 5.221,1029.3C5.222,1022.73 8.951,1016.73 14.862,1013.77C14.846,1013.72 14.832,1013.66 14.817,1013.61L14.877,1013.61L14.877,968.824C14.877,965.511 17.773,962.916 21.471,962.916L21.474,962.898ZM21.213,995.458C19.898,995.458 18.842,996.507 18.842,997.811L18.842,1017.49C13.695,1019.16 10.214,1023.92 10.21,1029.3C10.21,1036.17 15.824,1041.74 22.749,1041.74C29.674,1041.74 35.287,1036.17 35.287,1029.3C35.285,1023.81 31.659,1018.98 26.365,1017.39L26.365,997.811C26.365,996.507 25.309,995.458 23.994,995.458L21.213,995.458Z" style="fill-rule:nonzero;"/>
    </g>
    <g transform="matrix(0.0244815,0,0,0.0259907,55.9772,12.3097)">
        <path d="M728.505,22.581C732.439,20.64 732.051,19.987 797.076,62.64C804.058,66.342 798.735,60.519 802.725,270.568C935.072,199.756 914.995,203.785 927.452,210.429C946.282,223.427 965.595,235.708 984.258,248.905C984.458,272.451 984.491,295.996 984.241,319.525C924.985,351.802 866.779,385.963 807.757,418.64C805.207,419.956 802.491,422.123 803.191,425.372C804.598,459.849 802.98,537.146 805.474,549.966C827.957,539.184 910.65,485.059 922.552,481.712C927.926,483.198 925.339,479.666 929.367,627.002C968.26,605.773 1007.32,584.826 1046.05,563.297C1046.05,563.297 1049.44,347.603 1049.46,345.554C1119.28,312.887 1107.84,312.135 1122.98,318.192C1208.12,357.759 1174.6,321.046 1183.82,478.296C1246.14,446.302 1307.28,411.975 1369.32,379.448C1388.78,390.596 1407.55,402.91 1426.89,414.275C1438.25,421.615 1437.1,420.862 1437.59,431.805C1436.9,507.086 1441.28,500.604 1426.92,509.574C1366.02,546.197 1272.11,597.033 1258.74,607.839C1300.87,633.379 1356.03,662.226 1367.59,670.277C1367.69,687.507 1367.17,704.754 1367.84,721.967C1368.9,730.649 1369.59,739.38 1369.19,748.129C1351.64,759.427 1333.33,769.458 1314.93,779.273C1301.62,787.044 1323.28,793.943 1127.53,679.825C1096.42,697.804 1024.69,744.242 1012.19,753.495C1021.74,763.296 1084.23,797.342 1123.9,827.165C1111.76,840.717 1050.01,871.354 1010.42,898.468C1047.05,920.427 1126,959.718 1127.66,960.19C1131.54,960.105 1204.94,916.663 1290.22,870.956C1305.77,862.737 1303.36,859.58 1339.26,885.17C1366.25,905.336 1363.6,903.684 1365.7,915.281C1365.79,916.948 1367.04,966.177 1363.69,977.753C1356.15,988.391 1280.97,1024.69 1260.52,1040.76C1273.4,1050.47 1360.52,1100.76 1432.49,1143.74C1432.53,1196.28 1433.26,1219.21 1429.54,1230.34C1419.76,1238.16 1378.66,1254.9 1354.17,1266.77C1201.36,1181 1207.49,1183.1 1184.45,1171.1C1184.46,1172.77 1182.38,1287.38 1180.55,1296.11C1178.75,1298.84 1175.69,1300.34 1173.04,1302.09C1109.59,1336.63 1119.5,1333.23 1108.63,1329.09C1100.74,1325.25 1055.3,1302.94 1053.31,1294.38C1048.69,1276.3 1052.57,1260.55 1050.86,1097.48C945.376,1037.76 941.674,1034.92 929.667,1029.56C926.251,1062.4 928.051,1095.46 927.651,1128.41C928.351,1139.77 925.868,1150.95 925.635,1162.29C890.583,1146.4 817.901,1096.55 805.174,1093.31C803.178,1106.88 804.46,1186.53 803.274,1216.69C803.025,1222.84 792.901,1216.27 919.969,1287.76C989.113,1328.32 981.84,1309.82 979.241,1395.01C979.124,1401.51 973.442,1405.99 968.243,1408.9C952.129,1417.64 936.066,1426.63 918.935,1433.22C910.442,1436.45 822.812,1381.29 802.84,1372.76C795.079,1577.69 809.702,1570.1 788.426,1585.76C769.096,1598.34 750.05,1611.55 729.387,1621.9C706.375,1609.97 685.395,1594.6 663.416,1580.96C652.165,1575.45 661.264,1561.24 655.934,1372.73C618.524,1393.11 581.514,1414.22 544.421,1435.18C531.77,1428.9 490.062,1405.2 481.183,1398.22C481.2,1372.76 481.233,1347.3 481.166,1321.86C491.734,1313.93 641.501,1230.64 654.467,1221.52C654.384,1178.6 654.784,1135.66 654.25,1092.75C634.462,1101.92 544.568,1165.71 529.94,1167.2C526.069,1100.87 528.801,1120.8 527.641,1026.18C516.332,1030.87 513.217,1034.7 414.529,1090.56C410.587,1237.23 414.809,1206.17 410.946,1291.43C398.548,1299.36 355.324,1327.05 345.458,1331.12C340.302,1333.68 319.081,1316.84 284.669,1294.48C284.65,1292.79 284.294,1193.23 282.553,1167.8C261.517,1173.62 107.612,1269.19 96.987,1264.4C75.341,1255.83 53.995,1246.5 32.849,1236.75C21.127,1230.03 18.427,1241.5 19.701,1145.85C48.351,1127.54 179.471,1057.05 209.233,1041.09C209.233,1040.59 209.216,1039.59 209.216,1039.09C171.34,1020.16 133.413,1001.3 95.504,982.451C90.919,981.165 91.86,982.948 92.088,906.782C90.588,897.816 158.455,865.126 164.658,863.607C171.934,863.769 269.994,923.355 332.277,959.056C341.627,963.608 378.077,942.171 451.605,897.767C430.015,881.992 342.441,835.523 331.96,825.23C342.379,813.996 400.425,780.069 446.472,750.61C444.804,749.636 338.732,687.8 332.81,686.655C317.586,690.16 164.839,788.568 154.743,783.337C132.78,773.306 110.968,762.907 89.622,751.626C89.736,689.009 91.322,671.991 91.322,671.991C96.647,668.009 199.091,611.276 205.051,608.02C203.368,607.117 27.45,512.477 21.318,508.288C21.251,479.027 21.268,449.765 21.301,420.488C29.117,415.72 73.223,392.124 86.872,385.944C102.243,379.539 89.579,381.63 275.937,483.993C279.087,469.882 277.458,466.314 277.953,406.791C278.686,389.161 279.869,371.548 279.603,353.884C296.85,341.52 314.83,330.188 332.227,318.041C341.093,313.458 326.52,310.327 407.646,356.001C407.66,360.655 408.139,486.14 406.896,558.497C445.422,580.31 483.865,602.306 522.391,624.101C526.599,589.355 522.188,505.299 529.456,486.393C571.415,505.923 611.058,529.968 652.65,550.231C655.272,532.067 654.718,470.694 654.416,420.472C634.931,409.478 509.089,338.896 479.465,319.774C482.181,295.595 480.781,271.266 481.315,247.021C481.032,243.205 484.998,241.755 487.614,240.022C551.771,202.719 539.985,207.429 551.119,211.894C586.396,230.841 620.789,251.387 656.066,270.3C656.338,221.257 655.626,116.223 657.882,65.538C661.765,62.706 710.164,30.577 728.505,22.581M617.259,825.415C636.922,856.043 657.702,885.954 678.648,915.732C716.574,914.482 754.551,915.715 792.494,915.015C798.043,908.016 802.009,899.968 806.558,892.336C846.652,824.076 846.119,826.366 843.351,822.949C786.866,723.924 789.989,729.555 786.095,730.1C751.051,730.033 715.991,730.133 680.948,730.067C672.691,731.255 684.46,716.694 617.259,825.415Z" style="fill-rule:nonzero;"/>
    </g>
</svg>
