<?xml version="1.0" encoding="UTF-8" standalone="no"?>
<!DOCTYPE svg PUBLIC "-//W3C//DTD SVG 1.1//EN" "http://www.w3.org/Graphics/SVG/1.1/DTD/svg11.dtd">
<svg width="100%" height="100%" viewBox="0 0 100 100" version="1.1" xmlns="http://www.w3.org/2000/svg" xmlns:xlink="http://www.w3.org/1999/xlink" xml:space="preserve" xmlns:serif="http://www.serif.com/" style="fill-rule:evenodd;clip-rule:evenodd;stroke-linecap:round;">
    <g id="Capa-1" serif:id="Capa 1" transform="matrix(0.11359,0,0,0.11359,-33.2252,-7.37392)">
        <g id="g2036" transform="matrix(1.42923,0,0,1.31351,23.6067,-297.648)">
            <g id="handy" transform="matrix(1,0,0,1,20,12.4167)">
                <path d="M552.5,300.244L552.5,300.247L549.831,296.477C549.831,296.477 549.618,297.328 549.618,297.328C549.618,297.328 552.5,301.461 552.5,301.461C550.847,301.461 549.508,300.003 549.508,298.205L549.508,349.244C549.508,349.244 510.492,349.244 510.492,349.244C510.492,349.244 510.492,332.5 510.492,332.5C510.492,330.702 509.153,329.244 507.5,329.244L452.5,329.244C450.847,329.244 449.508,330.702 449.508,332.5L449.508,349.244C449.508,349.244 430.492,349.244 430.492,349.244C430.492,349.244 430.492,312.5 430.492,312.5C430.492,310.702 429.153,309.244 427.5,309.244L372.5,309.244C370.847,309.244 369.508,310.702 369.508,312.5L369.508,349.244C369.508,349.244 340,349.244 340,349.244C340.003,349.244 336.54,349.234 332.364,350.069C332.364,350.069 332.363,350.069 332.363,350.069C328.04,350.934 322.429,352.543 317.672,357.3C312.844,362.129 311.225,367.823 310.348,372.212C310.348,372.212 310.348,372.212 310.348,372.212C309.584,376.028 309.515,379.258 309.509,379.866L309.508,380.047C309.508,380 309.508,415.465 309.508,415.465C309.508,415.465 290.475,434.497 290.475,434.497C289.859,435.114 289.508,435.983 289.508,436.895L289.508,523.107C289.508,524.019 289.859,524.888 290.475,525.505L309.508,544.537L309.508,900.001L309.509,900.134C309.516,900.742 309.585,903.972 310.348,907.788C310.348,907.788 310.348,907.788 310.348,907.788C311.225,912.177 312.844,917.873 317.672,922.702C322.429,927.458 328.04,929.068 332.363,929.933C336.541,930.768 340.005,930.756 340.005,930.756C340,930.756 620,930.756 620,930.756C619.995,930.756 623.459,930.768 627.636,929.933C627.636,929.933 627.637,929.933 627.637,929.933C631.96,929.068 637.571,927.458 642.328,922.702C647.156,917.873 648.775,912.177 649.652,907.788C649.652,907.788 649.652,907.788 649.652,907.788C650.416,903.972 650.485,900.742 650.491,900.134L650.492,899.953C650.492,900 650.492,380 650.492,380L650.486,380.13L650.491,379.866C650.484,379.258 650.415,376.028 649.652,372.212C649.652,372.212 649.652,372.212 649.652,372.212C648.775,367.823 647.156,362.129 642.328,357.3C638.551,353.524 634.265,351.76 630.491,350.76C630.492,350.76 630.492,298.401 630.492,298.401C630.516,298.13 630.487,297.749 630.382,297.328L630.161,296.445C630.161,296.445 628.301,288.933 622.187,281.944C616.24,275.149 605.562,268.371 590,268.371C574.438,268.371 563.76,275.149 557.813,281.944C551.699,288.933 549.839,296.445 549.839,296.445L552.5,300.244ZM342.992,912.5L341.481,912.5C341.965,910.888 341.954,909.275 339.991,909.244C339.719,909.24 338.262,909.195 336.387,908.819C336.387,908.819 336.387,908.819 336.387,908.819C334.722,908.486 332.959,907.865 332.376,907.344C332.277,907.146 331.201,904.956 330.902,903.462C330.902,903.462 330.902,903.462 330.902,903.462C330.542,901.658 330.497,900.258 330.492,899.996L330.492,380.004C330.497,379.742 330.541,378.341 330.902,376.539C330.902,376.538 330.902,376.538 330.902,376.538C331.199,375.057 332.259,372.893 332.373,372.664C333.027,372.113 334.754,371.509 336.386,371.183C338.449,370.77 340,370.756 340,370.756C340,370.756 387.5,370.756 387.5,370.756C389.153,370.756 390.492,369.298 390.492,367.5L390.492,330.756C390.492,330.756 409.508,330.756 409.508,330.756C409.508,330.756 409.508,367.5 409.508,367.5C409.508,369.298 410.847,370.756 412.5,370.756L467.5,370.756C469.153,370.756 470.492,369.298 470.492,367.5L470.492,350.756C470.492,350.756 489.508,350.756 489.508,350.756C489.508,350.756 489.508,367.5 489.508,367.5C489.508,369.298 490.847,370.756 492.5,370.756L567.5,370.756C569.153,370.756 570.492,369.298 570.492,367.5L570.492,300.937C570.816,300.073 571.606,298.403 573.437,296.312C576.267,293.077 580.74,289.883 590,289.883C599.26,289.883 603.733,293.077 606.563,296.312C608.389,298.398 609.18,300.065 609.503,300.924C609.508,300.937 609.508,367.5 609.508,367.5C609.508,369.298 610.847,370.756 612.5,370.756L620,370.756C620,370.756 621.551,370.77 623.613,371.183C623.613,371.183 623.613,371.183 623.613,371.183C625.279,371.516 627.042,372.137 627.625,372.658C627.722,372.854 628.799,375.044 629.098,376.538C629.098,376.538 629.098,376.538 629.098,376.538C629.458,378.342 629.503,379.742 629.508,380.004L629.508,899.996C629.508,899.996 629.459,901.659 629.098,903.461C629.098,903.462 629.098,903.462 629.098,903.462C628.801,904.943 627.741,907.108 627.627,907.338C626.973,907.889 625.246,908.493 623.613,908.819C621.738,909.194 620.281,909.239 620.008,909.244L340,909.244C341.653,909.244 342.992,910.702 342.992,912.5ZM647.321,903.061L647.321,903.064L647.5,903.256L647.321,903.061ZM650.462,380.423L650.434,380.607L650.418,380.693L650.381,380.861L650.355,380.956C650.1,381.874 649.511,382.429 648.935,382.764C648.208,383.186 647.5,383.256 647.5,383.256C648.846,383.256 649.985,382.288 650.355,380.956L650.376,380.887L650.381,380.861L650.402,380.788L650.418,380.693L650.426,380.658L650.434,380.607L650.457,380.479L650.462,380.423C650.472,380.338 650.48,380.25 650.485,380.16L650.462,380.423ZM329.861,381.995C329.589,382.379 329.239,382.694 328.837,382.913C328.435,383.133 327.98,383.256 327.5,383.256C327.5,383.256 328.984,383.145 329.861,381.995ZM330.436,380.623L330.426,380.678L330.432,380.656L330.436,380.623ZM330.479,380.285L330.462,380.435L330.477,380.333L330.479,380.285ZM617.008,367.5C617.008,369.298 618.347,370.756 620,370.756C620,370.756 619.048,369.128 618.578,367.5L617.008,367.5Z" style="fill-rule:nonzero;"/>
            </g>
            <path id="speaker-1" d="M380,875.673L620,875.673L620,869.161L380,869.161L380,875.673Z" style="fill:none;fill-rule:nonzero;stroke:black;stroke-width:15px;"/>
            <path id="speaker-2" d="M380,815.673L620,815.673L620,809.161L380,809.161L380,815.673Z" style="fill:none;fill-rule:nonzero;stroke:black;stroke-width:15px;"/>
            <path id="speaker-3" d="M380,755.673L620,755.673L620,749.161L380,749.161L380,755.673Z" style="fill:none;fill-rule:nonzero;stroke:black;stroke-width:15px;"/>
            <path id="display" d="M622.992,472.417C622.992,470.618 621.653,469.161 620,469.161L380,469.161C378.347,469.161 377.008,470.618 377.008,472.417L377.008,692.417C377.008,694.215 378.347,695.673 380,695.673L620,695.673C621.653,695.673 622.992,694.215 622.992,692.417L622.992,472.417Z" style="fill:none;stroke:black;stroke-width:15px;stroke-linejoin:bevel;"/>
            <path id="little-display" d="M622.992,402.417C622.992,400.618 621.653,399.161 620,399.161L380,399.161C378.347,399.161 377.008,400.618 377.008,402.417L377.008,452.417C377.008,454.215 378.347,455.673 380,455.673L620,455.673C621.653,455.673 622.992,454.215 622.992,452.417L622.992,402.417Z" style="fill:none;stroke:black;stroke-width:15px;stroke-linejoin:bevel;"/>
        </g>
        <g transform="matrix(8.80355,0,0,8.80355,224.886,106.324)">
            <g transform="matrix(18,0,0,18,41.4181,44.4764)">
                <path d="M0.211,-0.069L0.315,-0.069C0.329,-0.069 0.339,-0.066 0.345,-0.061C0.351,-0.055 0.354,-0.047 0.354,-0.035C0.354,-0.024 0.351,-0.015 0.345,-0.009C0.339,-0.003 0.331,-0 0.32,-0L0.079,-0C0.068,-0 0.06,-0.003 0.054,-0.009C0.048,-0.015 0.045,-0.024 0.045,-0.035C0.045,-0.047 0.048,-0.056 0.054,-0.061C0.061,-0.066 0.072,-0.069 0.087,-0.069L0.134,-0.069L0.134,-0.509L0.103,-0.509C0.078,-0.509 0.062,-0.511 0.055,-0.516C0.048,-0.521 0.045,-0.531 0.045,-0.544C0.045,-0.555 0.048,-0.564 0.054,-0.57C0.06,-0.576 0.068,-0.579 0.079,-0.579L0.511,-0.579C0.522,-0.579 0.531,-0.576 0.536,-0.569C0.542,-0.562 0.545,-0.553 0.545,-0.54L0.545,-0.414C0.545,-0.403 0.542,-0.394 0.536,-0.388C0.531,-0.383 0.522,-0.38 0.511,-0.38C0.498,-0.38 0.488,-0.383 0.483,-0.391C0.479,-0.398 0.476,-0.414 0.476,-0.439L0.476,-0.509L0.211,-0.509L0.211,-0.344L0.34,-0.344L0.34,-0.357C0.34,-0.381 0.342,-0.397 0.347,-0.405C0.351,-0.413 0.359,-0.417 0.371,-0.417C0.382,-0.417 0.389,-0.414 0.394,-0.408C0.399,-0.402 0.401,-0.392 0.401,-0.378L0.401,-0.254C0.401,-0.238 0.399,-0.226 0.394,-0.22C0.39,-0.214 0.382,-0.211 0.371,-0.211C0.359,-0.211 0.351,-0.215 0.347,-0.223C0.342,-0.231 0.34,-0.247 0.34,-0.271L0.34,-0.285L0.211,-0.285L0.211,-0.069Z" style="fill-rule:nonzero;"/>
            </g>
            <g transform="matrix(18,0,0,18,52.2199,44.4764)">
                <path d="M0.199,-0.25L0.399,-0.25L0.294,-0.509L0.199,-0.25ZM0.224,-0.509L0.153,-0.509C0.133,-0.509 0.119,-0.511 0.111,-0.517C0.103,-0.522 0.099,-0.531 0.099,-0.544C0.099,-0.557 0.103,-0.566 0.11,-0.572C0.117,-0.577 0.136,-0.579 0.167,-0.579L0.306,-0.579C0.324,-0.579 0.336,-0.577 0.343,-0.572C0.349,-0.567 0.355,-0.559 0.36,-0.546L0.551,-0.069L0.559,-0.069C0.577,-0.069 0.589,-0.066 0.595,-0.062C0.602,-0.057 0.605,-0.048 0.605,-0.035C0.605,-0.022 0.602,-0.013 0.596,-0.008C0.59,-0.003 0.578,-0 0.561,-0L0.428,-0C0.403,-0 0.388,-0.003 0.381,-0.008C0.374,-0.013 0.37,-0.022 0.37,-0.035C0.37,-0.048 0.374,-0.056 0.382,-0.061C0.389,-0.066 0.404,-0.069 0.425,-0.069L0.47,-0.069L0.423,-0.185L0.175,-0.185L0.133,-0.069L0.18,-0.069C0.202,-0.069 0.216,-0.066 0.224,-0.061C0.232,-0.056 0.236,-0.048 0.236,-0.035C0.236,-0.022 0.232,-0.013 0.225,-0.008C0.218,-0.003 0.203,-0 0.179,-0L0.051,-0C0.03,-0 0.016,-0.003 0.009,-0.008C0.002,-0.013 -0.001,-0.022 -0.001,-0.035C-0.001,-0.048 0.002,-0.057 0.009,-0.062C0.016,-0.066 0.029,-0.069 0.049,-0.069L0.058,-0.069L0.224,-0.509Z" style="fill-rule:nonzero;"/>
            </g>
            <g transform="matrix(18,0,0,18,63.0216,44.4764)">
                <path d="M0.191,-0.513L0.191,-0.316L0.292,-0.316C0.338,-0.316 0.372,-0.324 0.395,-0.341C0.418,-0.357 0.429,-0.382 0.429,-0.414C0.429,-0.447 0.418,-0.472 0.396,-0.488C0.373,-0.505 0.34,-0.513 0.295,-0.513L0.191,-0.513ZM0.191,-0.069L0.224,-0.069C0.243,-0.069 0.256,-0.066 0.264,-0.061C0.272,-0.056 0.276,-0.047 0.276,-0.035C0.276,-0.022 0.272,-0.013 0.266,-0.008C0.259,-0.003 0.246,-0 0.227,-0L0.063,-0C0.052,-0 0.043,-0.003 0.038,-0.009C0.032,-0.015 0.029,-0.024 0.029,-0.035C0.029,-0.047 0.032,-0.056 0.039,-0.061C0.045,-0.066 0.056,-0.069 0.071,-0.069L0.115,-0.069L0.115,-0.513L0.087,-0.513C0.063,-0.513 0.047,-0.515 0.04,-0.52C0.032,-0.525 0.029,-0.533 0.029,-0.546C0.029,-0.557 0.032,-0.565 0.037,-0.571C0.043,-0.576 0.052,-0.579 0.063,-0.579L0.269,-0.579C0.319,-0.579 0.356,-0.577 0.381,-0.572C0.405,-0.567 0.426,-0.559 0.443,-0.548C0.465,-0.533 0.482,-0.514 0.494,-0.49C0.507,-0.466 0.513,-0.44 0.513,-0.412C0.513,-0.375 0.502,-0.343 0.479,-0.316C0.456,-0.289 0.424,-0.27 0.383,-0.26C0.391,-0.255 0.399,-0.249 0.406,-0.243C0.412,-0.236 0.419,-0.228 0.425,-0.219L0.523,-0.069L0.539,-0.069C0.557,-0.069 0.57,-0.066 0.577,-0.061C0.583,-0.056 0.587,-0.048 0.587,-0.035C0.587,-0.024 0.584,-0.015 0.578,-0.009C0.573,-0.003 0.564,-0 0.553,-0L0.498,-0C0.482,-0 0.466,-0.012 0.451,-0.035C0.449,-0.037 0.448,-0.039 0.447,-0.04L0.353,-0.182C0.334,-0.211 0.318,-0.23 0.305,-0.238C0.293,-0.247 0.276,-0.251 0.256,-0.251L0.191,-0.251L0.191,-0.069Z" style="fill-rule:nonzero;"/>
            </g>
        </g>
    </g>
</svg>
